<svg width="173" height="33" viewBox="0 0 173 33" fill="none" xmlns="http://www.w3.org/2000/svg">
<path d="M10.7986 1.136H14.3956L24.4606 24.5H19.7086L17.5306 19.154H7.39964L5.28764 24.5H0.634644L10.7986 1.136ZM16.0786 15.59L12.4816 6.086L8.81864 15.59H16.0786ZM26.8591 8.66H30.6211V11.201H30.6871C31.0611 10.409 31.6331 9.727 32.4031 9.155C33.1731 8.561 34.2181 8.264 35.5381 8.264C36.5941 8.264 37.4851 8.44 38.2111 8.792C38.9591 9.144 39.5641 9.606 40.0261 10.178C40.4881 10.75 40.8181 11.41 41.0161 12.158C41.2141 12.906 41.3131 13.687 41.3131 14.501V24.5H37.3531V16.481C37.3531 16.041 37.3311 15.557 37.2871 15.029C37.2431 14.479 37.1221 13.973 36.9241 13.511C36.7481 13.027 36.4621 12.631 36.0661 12.323C35.6701 11.993 35.1311 11.828 34.4491 11.828C33.7891 11.828 33.2281 11.938 32.7661 12.158C32.3261 12.378 31.9521 12.675 31.6441 13.049C31.3581 13.423 31.1491 13.852 31.0171 14.336C30.8851 14.82 30.8191 15.326 30.8191 15.854V24.5H26.8591V8.66ZM44.1253 12.026V8.66H47.3923V4.073H51.3523V8.66H55.7083V12.026H51.3523V18.956C51.3523 19.748 51.4953 20.375 51.7813 20.837C52.0893 21.299 52.6833 21.53 53.5633 21.53C53.9153 21.53 54.3003 21.497 54.7183 21.431C55.1363 21.343 55.4663 21.211 55.7083 21.035V24.368C55.2903 24.566 54.7733 24.698 54.1573 24.764C53.5633 24.852 53.0353 24.896 52.5733 24.896C51.5173 24.896 50.6483 24.775 49.9663 24.533C49.3063 24.313 48.7783 23.972 48.3823 23.51C48.0083 23.026 47.7443 22.432 47.5903 21.728C47.4583 21.024 47.3923 20.21 47.3923 19.286V12.026H44.1253ZM69.2571 1.136H78.4641C80.0041 1.136 81.4891 1.378 82.9191 1.862C84.3491 2.324 85.6141 3.039 86.7141 4.007C87.8141 4.975 88.6941 6.196 89.3541 7.67C90.0141 9.122 90.3441 10.838 90.3441 12.818C90.3441 14.82 89.9591 16.558 89.1891 18.032C88.4411 19.484 87.4621 20.694 86.2521 21.662C85.0641 22.608 83.7331 23.323 82.2591 23.807C80.8071 24.269 79.3771 24.5 77.9691 24.5H69.2571V1.136ZM76.5171 20.738C77.8151 20.738 79.0361 20.595 80.1801 20.309C81.3461 20.001 82.3581 19.539 83.2161 18.923C84.0741 18.285 84.7451 17.471 85.2291 16.481C85.7351 15.469 85.9881 14.248 85.9881 12.818C85.9881 11.41 85.7681 10.2 85.3281 9.188C84.8881 8.176 84.2721 7.362 83.4801 6.746C82.7101 6.108 81.7861 5.646 80.7081 5.36C79.6521 5.052 78.4861 4.898 77.2101 4.898H73.4151V20.738H76.5171ZM97.2671 17.966C97.3991 19.154 97.8611 20.078 98.6531 20.738C99.4451 21.398 100.402 21.728 101.524 21.728C102.514 21.728 103.339 21.53 103.999 21.134C104.681 20.716 105.275 20.199 105.781 19.583L108.619 21.728C107.695 22.872 106.661 23.686 105.517 24.17C104.373 24.654 103.174 24.896 101.92 24.896C100.732 24.896 99.6101 24.698 98.5541 24.302C97.4981 23.906 96.5851 23.345 95.8151 22.619C95.0451 21.893 94.4291 21.024 93.9671 20.012C93.5271 18.978 93.3071 17.834 93.3071 16.58C93.3071 15.326 93.5271 14.193 93.9671 13.181C94.4291 12.147 95.0451 11.267 95.8151 10.541C96.5851 9.815 97.4981 9.254 98.5541 8.858C99.6101 8.462 100.732 8.264 101.92 8.264C103.02 8.264 104.021 8.462 104.923 8.858C105.847 9.232 106.628 9.782 107.266 10.508C107.926 11.234 108.432 12.136 108.784 13.214C109.158 14.27 109.345 15.491 109.345 16.877V17.966H97.2671ZM105.385 14.996C105.363 13.83 105 12.917 104.296 12.257C103.592 11.575 102.613 11.234 101.359 11.234C100.171 11.234 99.2251 11.575 98.5211 12.257C97.8391 12.939 97.4211 13.852 97.2671 14.996H105.385ZM121.661 13.049C120.891 11.971 119.857 11.432 118.559 11.432C118.031 11.432 117.514 11.564 117.008 11.828C116.502 12.092 116.249 12.521 116.249 13.115C116.249 13.599 116.458 13.951 116.876 14.171C117.294 14.391 117.822 14.578 118.46 14.732C119.098 14.886 119.78 15.051 120.506 15.227C121.254 15.381 121.947 15.634 122.585 15.986C123.223 16.316 123.751 16.778 124.169 17.372C124.587 17.966 124.796 18.78 124.796 19.814C124.796 20.76 124.587 21.563 124.169 22.223C123.773 22.861 123.245 23.378 122.585 23.774C121.947 24.17 121.221 24.456 120.407 24.632C119.593 24.808 118.779 24.896 117.965 24.896C116.733 24.896 115.6 24.72 114.566 24.368C113.532 24.016 112.608 23.378 111.794 22.454L114.434 19.979C114.94 20.551 115.479 21.024 116.051 21.398C116.645 21.75 117.36 21.926 118.196 21.926C118.482 21.926 118.779 21.893 119.087 21.827C119.395 21.761 119.681 21.651 119.945 21.497C120.209 21.343 120.418 21.156 120.572 20.936C120.748 20.694 120.836 20.419 120.836 20.111C120.836 19.561 120.627 19.154 120.209 18.89C119.791 18.626 119.263 18.417 118.625 18.263C117.987 18.087 117.294 17.933 116.546 17.801C115.82 17.647 115.138 17.416 114.5 17.108C113.862 16.778 113.334 16.327 112.916 15.755C112.498 15.183 112.289 14.391 112.289 13.379C112.289 12.499 112.465 11.74 112.817 11.102C113.191 10.442 113.675 9.903 114.269 9.485C114.863 9.067 115.545 8.759 116.315 8.561C117.085 8.363 117.866 8.264 118.658 8.264C119.714 8.264 120.759 8.451 121.793 8.825C122.827 9.177 123.663 9.793 124.301 10.673L121.661 13.049ZM128.107 8.66H132.067V24.5H128.107V8.66ZM127.546 3.281C127.546 2.643 127.777 2.093 128.239 1.631C128.723 1.147 129.328 0.904999 130.054 0.904999C130.78 0.904999 131.385 1.136 131.869 1.598C132.375 2.038 132.628 2.599 132.628 3.281C132.628 3.963 132.375 4.535 131.869 4.997C131.385 5.437 130.78 5.657 130.054 5.657C129.328 5.657 128.723 5.426 128.239 4.964C127.777 4.48 127.546 3.919 127.546 3.281ZM153.081 8.66V23.081C153.081 24.511 152.905 25.798 152.553 26.942C152.201 28.108 151.651 29.087 150.903 29.879C150.177 30.693 149.253 31.32 148.131 31.76C147.009 32.2 145.678 32.42 144.138 32.42C142.664 32.42 141.267 32.233 139.947 31.859C138.627 31.485 137.406 30.803 136.284 29.813L138.66 26.579C139.452 27.305 140.277 27.866 141.135 28.262C141.993 28.658 142.983 28.856 144.105 28.856C145.051 28.856 145.843 28.724 146.481 28.46C147.141 28.196 147.658 27.833 148.032 27.371C148.428 26.909 148.703 26.348 148.857 25.688C149.033 25.05 149.121 24.335 149.121 23.543V22.388H149.055C148.483 23.158 147.724 23.741 146.778 24.137C145.832 24.511 144.864 24.698 143.874 24.698C142.686 24.698 141.608 24.489 140.64 24.071C139.672 23.631 138.836 23.048 138.132 22.322C137.45 21.596 136.922 20.738 136.548 19.748C136.174 18.758 135.987 17.702 135.987 16.58C135.987 15.414 136.163 14.325 136.515 13.313C136.867 12.301 137.384 11.421 138.066 10.673C138.748 9.925 139.562 9.342 140.508 8.924C141.476 8.484 142.576 8.264 143.808 8.264C144.93 8.264 145.975 8.484 146.943 8.924C147.911 9.364 148.681 10.068 149.253 11.036H149.319V8.66H153.081ZM144.633 11.828C143.929 11.828 143.291 11.949 142.719 12.191C142.147 12.411 141.652 12.73 141.234 13.148C140.838 13.544 140.519 14.039 140.277 14.633C140.057 15.205 139.947 15.843 139.947 16.547C139.947 17.185 140.057 17.779 140.277 18.329C140.519 18.879 140.849 19.363 141.267 19.781C141.685 20.199 142.18 20.529 142.752 20.771C143.324 21.013 143.94 21.134 144.6 21.134C145.326 21.134 145.975 21.013 146.547 20.771C147.141 20.529 147.636 20.21 148.032 19.814C148.45 19.396 148.769 18.901 148.989 18.329C149.209 17.757 149.319 17.141 149.319 16.481C149.319 15.095 148.901 13.973 148.065 13.115C147.229 12.257 146.085 11.828 144.633 11.828ZM157.73 8.66H161.492V11.201H161.558C161.932 10.409 162.504 9.727 163.274 9.155C164.044 8.561 165.089 8.264 166.409 8.264C167.465 8.264 168.356 8.44 169.082 8.792C169.83 9.144 170.435 9.606 170.897 10.178C171.359 10.75 171.689 11.41 171.887 12.158C172.085 12.906 172.184 13.687 172.184 14.501V24.5H168.224V16.481C168.224 16.041 168.202 15.557 168.158 15.029C168.114 14.479 167.993 13.973 167.795 13.511C167.619 13.027 167.333 12.631 166.937 12.323C166.541 11.993 166.002 11.828 165.32 11.828C164.66 11.828 164.099 11.938 163.637 12.158C163.197 12.378 162.823 12.675 162.515 13.049C162.229 13.423 162.02 13.852 161.888 14.336C161.756 14.82 161.69 15.326 161.69 15.854V24.5H157.73V8.66Z" fill="black" fill-opacity="0.85"/>
</svg>
